<svg width="16" height="16" viewBox="0 0 16 16" fill="none" xmlns="http://www.w3.org/2000/svg">
<g clip-path="url(#clip0_2105_1518)">
<mask id="mask0_2105_1518" style="mask-type:luminance" maskUnits="userSpaceOnUse" x="0" y="0" width="16" height="16">
<path d="M16 0.882202H0V15.3918H16V0.882202Z" fill="white"/>
</mask>
<g mask="url(#mask0_2105_1518)">
<path d="M8.67468 14.1929C8.557 14.2162 8.43856 14.2368 8.3186 14.2548C7.1048 14.4355 6.02896 14.319 5.11548 13.9832L5.6022 15.1847C5.6534 15.3089 5.76956 15.3918 5.9044 15.3918H8.80916C8.96772 15.3918 9.07696 15.218 9.02656 15.0774L8.67468 14.1929Z" fill="url(#paint0_linear_2105_1518)"/>
<path d="M7.80894 12.0153L6.24749 8.08621C6.10269 8.18553 5.94378 8.31469 5.8043 8.46213C5.30498 8.99013 4.94662 10.2173 5.73478 11.2615C6.2471 11.94 7.1629 12.0493 7.80894 12.0153Z" fill="url(#paint1_linear_2105_1518)"/>
<path d="M4.54769 3.80873L3.54249 1.27992C3.49169 1.14734 3.37553 1.06482 3.24065 1.06482H0.232762C0.0742103 1.06482 -0.0426976 1.23025 0.0153744 1.38766L2.13845 6.63133C2.64541 5.37209 3.55053 4.43109 4.54769 3.80873Z" fill="url(#paint2_linear_2105_1518)"/>
<path d="M13.4262 6.5831C12.3653 7.2475 11.5653 7.12562 10.7095 7.37014C10.081 7.5497 9.77115 7.8821 9.56787 8.28438C10.3045 8.22746 10.8825 8.46014 11.2451 8.82882C11.689 9.28078 11.9053 9.9169 11.9512 10.5527L13.8163 6.31146C13.6895 6.40774 13.5592 6.49946 13.4266 6.58274L13.4262 6.5831Z" fill="url(#paint3_linear_2105_1518)"/>
<path d="M8.31812 14.2548C7.79088 14.3331 7.28964 14.3557 6.81664 14.3285L6.49264 15.0777C6.43728 15.2183 6.5404 15.3922 6.69896 15.3922H9.60372C9.73861 15.3922 9.8578 15.3093 9.91316 15.1851L10.722 13.3463C10.0706 13.8361 9.22512 14.1199 8.31812 14.2548Z" fill="url(#paint4_linear_2105_1518)"/>
<path d="M15.7755 1.06482H12.7676C12.6327 1.06482 12.5135 1.14773 12.4581 1.27992L12.2346 1.79684C13.0839 1.87592 14.292 2.37181 14.9965 3.62801L15.9818 1.38766C16.0452 1.23025 15.9341 1.06482 15.7755 1.06482Z" fill="url(#paint5_linear_2105_1518)"/>
<path d="M12.4189 4.35517C12.8976 4.33377 13.2701 3.92653 13.2483 3.44781C13.2269 2.96909 12.8197 2.59661 12.3409 2.61837C11.8619 2.63977 11.4897 3.04705 11.5111 3.52573C11.5325 4.00445 11.9398 4.37697 12.4185 4.35557L12.4189 4.35517ZM12.7963 3.23693C12.9236 3.23117 13.0317 3.33013 13.0374 3.45737C13.0432 3.58457 12.9442 3.69269 12.817 3.69845C12.6898 3.70417 12.5817 3.60521 12.5759 3.47797C12.5702 3.35077 12.6691 3.24265 12.7963 3.23693Z" fill="url(#paint6_linear_2105_1518)"/>
<path d="M8.06731 1.33803C8.96171 1.6624 9.52679 3.08897 9.83243 4.16829C10.2229 5.54789 11.0134 5.53873 11.8 5.41837C12.4109 5.32477 13.6106 4.63325 14.2337 4.47317C14.9114 4.29933 15.1288 4.36581 14.5771 3.53293C13.7084 2.22173 12.6115 2.06545 12.2699 2.04981C12.103 2.04217 11.9394 1.99822 11.7912 1.92105C11.3316 1.6815 10.791 1.19706 9.62647 0.967446C8.25299 0.69657 7.51335 1.13631 8.06731 1.33727V1.33803ZM12.2791 2.32261C12.9232 2.29393 13.4684 2.79253 13.4974 3.43629C13.5261 4.08041 13.0275 4.62561 12.3838 4.65465C11.7396 4.68329 11.1944 4.18473 11.1654 3.54097C11.1368 2.89681 11.6353 2.35161 12.2791 2.32261Z" fill="url(#paint7_linear_2105_1518)"/>
<path d="M9.33913 6.25469C9.46369 6.02545 9.27341 5.66517 8.92117 5.68085C8.64953 5.69309 8.37713 5.83101 8.08789 6.17177C7.68369 6.64781 7.61913 7.07953 7.79753 7.38785C7.96677 7.68013 8.33701 7.79205 8.94257 7.66217C9.35633 7.57353 9.47553 7.37945 9.84993 7.19109C9.86865 7.18153 9.86749 7.15405 9.84801 7.14601C9.80753 7.12921 9.72997 7.11773 9.59089 7.15977C9.32153 7.24153 8.65601 7.38097 8.69385 7.04745C8.72097 6.80981 9.08773 6.71813 9.33913 6.25469Z" fill="url(#paint8_linear_2105_1518)"/>
<path d="M14.575 4.68338C13.574 4.82014 12.6918 5.9541 11.3218 5.95598C10.6452 5.95714 9.69732 5.52694 9.35192 4.52098C8.93704 3.31182 8.91792 3.05698 8.50072 3.0031C8.27456 2.97406 7.61856 2.95842 6.93928 3.10894C5.87372 3.34542 4.97132 3.8971 4.62252 4.15994C1.90572 6.20814 1.37619 10.0268 3.46068 12.4203C4.58428 13.7105 6.27184 14.1101 7.61856 14.0333C10.2922 13.8805 11.3833 12.0994 11.4513 10.8615C11.5331 9.37614 10.3873 8.2907 9.13988 8.80954C8.8392 8.93446 8.59624 9.1805 8.5072 9.57134C8.4056 10.0161 8.56568 10.6996 9.42108 10.7187C9.49864 10.7164 9.53228 10.6827 9.53532 10.6331C9.538 10.5888 9.50628 10.5609 9.45052 10.5349C9.41076 10.5162 9.02644 10.3171 9.14716 9.89574C9.25528 9.51938 9.789 9.41014 10.0897 9.7261C10.393 10.0443 10.5099 10.6117 10.2047 11.244C9.88108 11.9141 8.70208 12.7458 6.78224 12.3638C6.12092 12.232 4.927 11.5939 4.82156 10.1544C4.74592 9.12322 5.259 8.39962 5.6636 8.03666C6.16792 7.58354 6.78224 7.26222 7.4092 7.07158C7.39812 6.72162 7.50892 6.37814 7.82448 6.00642C8.1538 5.61862 8.49996 5.4219 8.88276 5.4047C9.1628 5.3921 9.40388 5.50134 9.54792 5.73822C9.68088 5.95638 9.6526 6.22382 9.53876 6.43354C9.46004 6.57834 9.37296 6.69258 9.28776 6.78582C10.0656 6.79306 10.7491 6.95926 11.3115 6.8901C12.8821 6.69678 13.7352 5.98082 14.1318 5.55102C14.246 5.42722 14.3687 5.31186 14.499 5.2045C14.6533 5.07726 14.7786 4.96378 14.8619 4.87822C15.014 4.72158 14.8371 4.64746 14.575 4.68338ZM3.7434 11.0843C2.4108 9.07622 2.67672 6.64026 4.06968 4.91834C4.65572 4.28374 5.2892 3.89098 5.77324 3.65754C4.64696 4.44842 3.38428 6.15006 3.36668 8.05078C3.3556 9.26726 3.518 10.2526 3.82476 11.0419C3.91228 11.2669 3.87672 11.2853 3.7434 11.0843ZM8.86712 5.02646C6.96256 4.62798 5.3056 5.78406 4.48076 7.60874C4.42764 7.72606 4.378 7.86854 4.33556 8.02902C4.2802 8.23838 4.21216 8.26014 4.23356 8.01182C4.3432 6.73118 5.2594 5.50098 6.15224 5.07726C7.38208 4.4931 8.26692 4.61346 8.88088 4.9145C9.08908 5.0169 9.07384 5.06962 8.86712 5.02646Z" fill="url(#paint9_linear_2105_1518)"/>
</g>
</g>
<defs>
<linearGradient id="paint0_linear_2105_1518" x1="7.07692" y1="1.00483" x2="7.07692" y2="15.1886" gradientUnits="userSpaceOnUse">
<stop stop-color="#5693FC"/>
<stop offset="0.34" stop-color="#4D83FF"/>
<stop offset="1" stop-color="#364ECF"/>
</linearGradient>
<linearGradient id="paint1_linear_2105_1518" x1="6.5417" y1="0.88222" x2="6.5417" y2="15.1886" gradientUnits="userSpaceOnUse">
<stop stop-color="#5693FC"/>
<stop offset="0.34" stop-color="#4D83FF"/>
<stop offset="1" stop-color="#364ECF"/>
</linearGradient>
<linearGradient id="paint2_linear_2105_1518" x1="2.27369" y1="1.00484" x2="2.27369" y2="15.1886" gradientUnits="userSpaceOnUse">
<stop stop-color="#5693FC"/>
<stop offset="0.34" stop-color="#4D83FF"/>
<stop offset="1" stop-color="#364ECF"/>
</linearGradient>
<linearGradient id="paint3_linear_2105_1518" x1="11.6917" y1="1.00476" x2="11.6917" y2="15.1885" gradientUnits="userSpaceOnUse">
<stop stop-color="#5693FC"/>
<stop offset="0.34" stop-color="#4D83FF"/>
<stop offset="1" stop-color="#364ECF"/>
</linearGradient>
<linearGradient id="paint4_linear_2105_1518" x1="8.60008" y1="1.0048" x2="8.60008" y2="15.1885" gradientUnits="userSpaceOnUse">
<stop stop-color="#5693FC"/>
<stop offset="0.34" stop-color="#4D83FF"/>
<stop offset="1" stop-color="#364ECF"/>
</linearGradient>
<linearGradient id="paint5_linear_2105_1518" x1="14.1174" y1="1.00484" x2="14.1174" y2="15.1886" gradientUnits="userSpaceOnUse">
<stop stop-color="#5693FC"/>
<stop offset="0.34" stop-color="#4D83FF"/>
<stop offset="1" stop-color="#364ECF"/>
</linearGradient>
<linearGradient id="paint6_linear_2105_1518" x1="12.3799" y1="1.00496" x2="12.3799" y2="15.1887" gradientUnits="userSpaceOnUse">
<stop stop-color="#5693FC"/>
<stop offset="0.34" stop-color="#4D83FF"/>
<stop offset="1" stop-color="#364ECF"/>
</linearGradient>
<linearGradient id="paint7_linear_2105_1518" x1="11.3858" y1="1.00489" x2="11.3858" y2="15.1886" gradientUnits="userSpaceOnUse">
<stop stop-color="#5693FC"/>
<stop offset="0.34" stop-color="#4D83FF"/>
<stop offset="1" stop-color="#364ECF"/>
</linearGradient>
<linearGradient id="paint8_linear_2105_1518" x1="8.78361" y1="1.0049" x2="8.78361" y2="15.1886" gradientUnits="userSpaceOnUse">
<stop stop-color="#5693FC"/>
<stop offset="0.34" stop-color="#4D83FF"/>
<stop offset="1" stop-color="#364ECF"/>
</linearGradient>
<linearGradient id="paint9_linear_2105_1518" x1="8.55192" y1="1.00496" x2="8.55192" y2="15.1887" gradientUnits="userSpaceOnUse">
<stop stop-color="#5693FC"/>
<stop offset="0.34" stop-color="#4D83FF"/>
<stop offset="1" stop-color="#364ECF"/>
</linearGradient>
<clipPath id="clip0_2105_1518">
<rect width="16" height="16" fill="white"/>
</clipPath>
</defs>
</svg>
